<svg width="100" height="100" viewBox="0 0 100 100" fill="none" xmlns="http://www.w3.org/2000/svg">
<rect width="100" height="100" />
<g clip-path="url(#clip0_5_809)">
<path fill-rule="evenodd" clip-rule="evenodd" d="M58.3523 14C53.619 13.8096 48.9992 15.4797 45.4817 18.6528V18.6528C43.7524 20.603 42.4332 22.8813 41.6027 25.352C40.7722 27.8227 40.4474 30.4352 40.6477 33.034V65.8149C40.4509 68.4064 40.7746 71.0112 41.5996 73.4758C42.4246 75.9404 43.7342 78.2151 45.4515 80.1659V80.1659C48.9737 83.328 53.5929 84.9871 58.3221 84.7885H59.017C59.164 84.7808 59.3023 84.7169 59.4035 84.61C59.5047 84.5032 59.5611 84.3616 59.5609 84.2144V77.9302C59.5656 77.8504 59.5517 77.7707 59.5202 77.6973C59.4888 77.6238 59.4406 77.5588 59.3796 77.5072C59.3266 77.4479 59.2613 77.401 59.1882 77.3696C59.1151 77.3383 59.0361 77.3234 58.9566 77.3259H58.2315C56.869 77.4075 55.5058 77.1803 54.2434 76.6613C53.0884 76.1265 52.0589 75.3544 51.2221 74.3953C49.3322 71.7697 48.4429 68.5551 48.7145 65.3315V65.3315V33.5477C48.4691 30.3265 49.356 27.1208 51.2221 24.4838C52.0619 23.5357 53.0912 22.774 54.2434 22.2481C55.4708 21.7114 56.8018 21.4534 58.1409 21.4928H58.866C59.0032 21.5388 59.1517 21.5388 59.2889 21.4928C59.4028 21.3812 59.4679 21.2292 59.4702 21.0698V14.7251C59.4704 14.5779 59.4141 14.4363 59.3129 14.3295C59.2117 14.2227 59.0733 14.1588 58.9264 14.1511L58.3523 14ZM84.9396 14C80.2128 13.8174 75.5994 15.4744 72.0689 18.6225V18.6225C70.332 20.58 69.0085 22.8683 68.1778 25.3499C67.3471 27.8316 67.0264 30.4555 67.2349 33.0642V65.8451C67.0358 68.4415 67.3582 71.0514 68.1832 73.5213C69.0082 75.9911 70.3191 78.2709 72.0387 80.2264C75.5425 83.4222 80.172 85.0958 84.9094 84.8791H85.6042C85.7512 84.8714 85.8896 84.8075 85.9908 84.7007C86.092 84.5939 86.1483 84.4522 86.1481 84.3051V77.9906C86.1504 77.9156 86.1353 77.841 86.1038 77.7728C86.0724 77.7046 86.0254 77.6448 85.9668 77.5979C85.9153 77.5368 85.8502 77.4887 85.7768 77.4572C85.7033 77.4257 85.6236 77.4118 85.5438 77.4166H84.8187C83.4792 77.4276 82.152 77.1601 80.9213 76.6311C79.7472 76.1909 78.6773 75.5119 77.7791 74.637C75.9557 71.9843 75.1119 68.7799 75.3923 65.5732V65.5732V33.4872C75.1622 30.2676 76.0477 27.0669 77.9 24.4234C78.7836 23.4578 79.8659 22.6951 81.0723 22.1876C82.305 21.6681 83.6323 21.4109 84.9698 21.4323H85.6949C85.7746 21.4371 85.8544 21.4232 85.9278 21.3917C86.0012 21.3602 86.0663 21.3121 86.1179 21.2511C86.1765 21.2042 86.2234 21.1443 86.2549 21.0761C86.2864 21.0079 86.3015 20.9333 86.2991 20.8583V14.5136C86.2993 14.3664 86.243 14.2248 86.1418 14.118C86.0406 14.0112 85.9023 13.9473 85.7553 13.9396L84.9396 14ZM31.7349 14C27.0092 13.8238 22.398 15.4799 18.8643 18.6225V18.6225C17.1273 20.58 15.8038 22.8683 14.9731 25.3499C14.1424 27.8316 13.8217 30.4555 14.0302 33.0642V65.8451C13.8311 68.4415 14.1535 71.0514 14.9785 73.5213C15.8035 75.9911 17.1144 78.2709 18.834 80.2264C22.3395 83.4193 26.9678 85.0925 31.7047 84.8791H32.3996C32.4795 84.8966 32.5623 84.8969 32.6423 84.8798C32.7223 84.8627 32.7978 84.8287 32.8636 84.78C32.9294 84.7314 32.984 84.6692 33.0238 84.5977C33.0637 84.5262 33.0877 84.4471 33.0945 84.3655V78.0813C33.1365 77.9434 33.1365 77.7961 33.0945 77.6583C32.9829 77.5444 32.8309 77.4793 32.6715 77.477H31.6745C30.3286 77.4879 28.9972 77.1989 27.777 76.6311C26.5578 76.1031 25.4658 75.3201 24.5745 74.3349C22.7222 71.6914 21.8366 68.4907 22.0668 65.2711V65.2711V33.4872C21.8366 30.2676 22.7222 27.0669 24.5745 24.4234C25.4742 23.4627 26.5651 22.7011 27.777 22.1876C28.9982 21.6654 30.3163 21.4079 31.6443 21.4323H32.3996C32.4746 21.4347 32.5492 21.4195 32.6174 21.3881C32.6855 21.3566 32.7454 21.3097 32.7923 21.2511C32.851 21.2042 32.8979 21.1443 32.9294 21.0761C32.9608 21.0079 32.976 20.9333 32.9736 20.8583V14.5136C32.9738 14.3664 32.9175 14.2248 32.8163 14.118C32.7151 14.0112 32.5767 13.9473 32.4298 13.9396L31.7349 14Z" fill="#D4E157"/>
</g>
<defs>
<clipPath id="clip0_5_809">
<rect width="72.1783" height="71" transform="translate(14 14)"/>
</clipPath>
</defs>
</svg>
